<?xml version="1.0" encoding="UTF-8"?>
<svg xmlns="http://www.w3.org/2000/svg" xmlns:xlink="http://www.w3.org/1999/xlink" width="128pt" height="128pt" viewBox="0 0 128 128" version="1.1">
<g id="surface4874395">
<rect x="0" y="0" width="128" height="128" style="fill:rgb(3.529412%,18.039216%,12.54902%);fill-opacity:1;stroke:none;"/>
<path style=" stroke:none;fill-rule:nonzero;fill:rgb(100%,100%,100%);fill-opacity:1;" d="M 58.667969 16 L 58.667969 43.511719 C 56.816406 42.757812 52.820312 42.667969 50.855469 42.667969 C 36.046875 42.667969 22.34375 49.632812 22.34375 69.332031 C 22.34375 92.90625 40.90625 96 53.332031 96 C 58.238281 96 69.332031 95.515625 74.667969 93.96875 L 74.667969 16 Z M 85.332031 16 L 85.332031 32 L 101.332031 32 L 101.332031 16 Z M 85.332031 42.667969 L 85.332031 89.074219 C 85.332031 97.160156 80.414062 105.574219 69.332031 110.40625 L 84.582031 117.3125 C 100.082031 111.980469 101.332031 94.40625 101.332031 89.074219 L 101.332031 42.667969 Z M 53.175781 56.269531 C 54.882812 56.269531 56.800781 56.582031 58.667969 57.011719 L 58.667969 82.09375 C 56.800781 82.519531 54.882812 82.84375 53.175781 82.84375 C 46.191406 82.84375 39.417969 80.640625 39.417969 69.332031 C 39.417969 58.027344 46.191406 56.269531 53.175781 56.269531 Z M 53.175781 56.269531 "/>
</g>
</svg>
