<?xml version="1.0" encoding="UTF-8" ?>
<svg version="1.1" width="320" height="320" xmlns="http://www.w3.org/2000/svg" shape-rendering="crispEdges">
<rect x="140" y="60" width="20" height="20" fill="#000000" />
<rect x="100" y="80" width="20" height="20" fill="#000000" />
<rect x="120" y="80" width="20" height="20" fill="#000000" />
<rect x="140" y="80" width="20" height="20" fill="#222034" />
<rect x="160" y="80" width="20" height="20" fill="#000000" />
<rect x="180" y="80" width="20" height="20" fill="#000000" />
<rect x="60" y="100" width="20" height="20" fill="#000000" />
<rect x="80" y="100" width="20" height="20" fill="#000000" />
<rect x="100" y="100" width="20" height="20" fill="#222034" />
<rect x="120" y="100" width="20" height="20" fill="#222034" />
<rect x="140" y="100" width="20" height="20" fill="#222034" />
<rect x="160" y="100" width="20" height="20" fill="#222034" />
<rect x="180" y="100" width="20" height="20" fill="#222034" />
<rect x="200" y="100" width="20" height="20" fill="#000000" />
<rect x="220" y="100" width="20" height="20" fill="#000000" />
<rect x="20" y="120" width="20" height="20" fill="#000000" />
<rect x="40" y="120" width="20" height="20" fill="#000000" />
<rect x="60" y="120" width="20" height="20" fill="#222034" />
<rect x="80" y="120" width="20" height="20" fill="#222034" />
<rect x="100" y="120" width="20" height="20" fill="#222034" />
<rect x="120" y="120" width="20" height="20" fill="#222034" />
<rect x="140" y="120" width="20" height="20" fill="#222034" />
<rect x="160" y="120" width="20" height="20" fill="#222034" />
<rect x="180" y="120" width="20" height="20" fill="#222034" />
<rect x="200" y="120" width="20" height="20" fill="#222034" />
<rect x="220" y="120" width="20" height="20" fill="#222034" />
<rect x="240" y="120" width="20" height="20" fill="#000000" />
<rect x="260" y="120" width="20" height="20" fill="#000000" />
<rect x="0" y="140" width="20" height="20" fill="#000000" />
<rect x="20" y="140" width="20" height="20" fill="#222034" />
<rect x="40" y="140" width="20" height="20" fill="#222034" />
<rect x="60" y="140" width="20" height="20" fill="#222034" />
<rect x="80" y="140" width="20" height="20" fill="#222034" />
<rect x="100" y="140" width="20" height="20" fill="#222034" />
<rect x="120" y="140" width="20" height="20" fill="#222034" />
<rect x="140" y="140" width="20" height="20" fill="#847E87" />
<rect x="160" y="140" width="20" height="20" fill="#222034" />
<rect x="180" y="140" width="20" height="20" fill="#222034" />
<rect x="200" y="140" width="20" height="20" fill="#222034" />
<rect x="220" y="140" width="20" height="20" fill="#222034" />
<rect x="240" y="140" width="20" height="20" fill="#222034" />
<rect x="260" y="140" width="20" height="20" fill="#222034" />
<rect x="280" y="140" width="20" height="20" fill="#000000" />
<rect x="20" y="160" width="20" height="20" fill="#000000" />
<rect x="40" y="160" width="20" height="20" fill="#000000" />
<rect x="60" y="160" width="20" height="20" fill="#222034" />
<rect x="80" y="160" width="20" height="20" fill="#222034" />
<rect x="100" y="160" width="20" height="20" fill="#222034" />
<rect x="120" y="160" width="20" height="20" fill="#222034" />
<rect x="140" y="160" width="20" height="20" fill="#222034" />
<rect x="160" y="160" width="20" height="20" fill="#F7C027" />
<rect x="180" y="160" width="20" height="20" fill="#F7C027" />
<rect x="200" y="160" width="20" height="20" fill="#222034" />
<rect x="220" y="160" width="20" height="20" fill="#222034" />
<rect x="240" y="160" width="20" height="20" fill="#000000" />
<rect x="260" y="160" width="20" height="20" fill="#000000" />
<rect x="60" y="180" width="20" height="20" fill="#000000" />
<rect x="80" y="180" width="20" height="20" fill="#000000" />
<rect x="100" y="180" width="20" height="20" fill="#222034" />
<rect x="120" y="180" width="20" height="20" fill="#222034" />
<rect x="140" y="180" width="20" height="20" fill="#222034" />
<rect x="160" y="180" width="20" height="20" fill="#222034" />
<rect x="180" y="180" width="20" height="20" fill="#F7C027" />
<rect x="200" y="180" width="20" height="20" fill="#F7C027" />
<rect x="220" y="180" width="20" height="20" fill="#000000" />
<rect x="60" y="200" width="20" height="20" fill="#000000" />
<rect x="80" y="200" width="20" height="20" fill="#322F4D" />
<rect x="100" y="200" width="20" height="20" fill="#000000" />
<rect x="120" y="200" width="20" height="20" fill="#000000" />
<rect x="140" y="200" width="20" height="20" fill="#222034" />
<rect x="160" y="200" width="20" height="20" fill="#000000" />
<rect x="180" y="200" width="20" height="20" fill="#000000" />
<rect x="200" y="200" width="20" height="20" fill="#F7C027" />
<rect x="220" y="200" width="20" height="20" fill="#000000" />
<rect x="60" y="220" width="20" height="20" fill="#000000" />
<rect x="80" y="220" width="20" height="20" fill="#322F4D" />
<rect x="100" y="220" width="20" height="20" fill="#322F4D" />
<rect x="120" y="220" width="20" height="20" fill="#322F4D" />
<rect x="140" y="220" width="20" height="20" fill="#000000" />
<rect x="160" y="220" width="20" height="20" fill="#222034" />
<rect x="180" y="220" width="20" height="20" fill="#222034" />
<rect x="200" y="220" width="20" height="20" fill="#F7C027" />
<rect x="220" y="220" width="20" height="20" fill="#000000" />
<rect x="60" y="240" width="20" height="20" fill="#000000" />
<rect x="80" y="240" width="20" height="20" fill="#322F4D" />
<rect x="100" y="240" width="20" height="20" fill="#322F4D" />
<rect x="120" y="240" width="20" height="20" fill="#322F4D" />
<rect x="140" y="240" width="20" height="20" fill="#000000" />
<rect x="160" y="240" width="20" height="20" fill="#222034" />
<rect x="180" y="240" width="20" height="20" fill="#222034" />
<rect x="200" y="240" width="20" height="20" fill="#F7C027" />
<rect x="220" y="240" width="20" height="20" fill="#000000" />
<rect x="80" y="260" width="20" height="20" fill="#000000" />
<rect x="100" y="260" width="20" height="20" fill="#000000" />
<rect x="120" y="260" width="20" height="20" fill="#322F4D" />
<rect x="140" y="260" width="20" height="20" fill="#000000" />
<rect x="160" y="260" width="20" height="20" fill="#222034" />
<rect x="180" y="260" width="20" height="20" fill="#000000" />
<rect x="200" y="260" width="20" height="20" fill="#F7C027" />
<rect x="120" y="280" width="20" height="20" fill="#000000" />
<rect x="140" y="280" width="20" height="20" fill="#000000" />
<rect x="160" y="280" width="20" height="20" fill="#000000" />
<rect x="200" y="280" width="20" height="20" fill="#F7C027" />
</svg>