<?xml version="1.0" encoding="UTF-8" ?>
<svg version="1.1" width="400" height="400" xmlns="http://www.w3.org/2000/svg" shape-rendering="crispEdges">
<rect x="100" y="20" width="20" height="20" fill="#4B8BBE" />
<rect x="120" y="20" width="20" height="20" fill="#4B8BBE" />
<rect x="140" y="20" width="20" height="20" fill="#4B8BBE" />
<rect x="240" y="20" width="20" height="20" fill="#4B8BBE" />
<rect x="260" y="20" width="20" height="20" fill="#4B8BBE" />
<rect x="280" y="20" width="20" height="20" fill="#4B8BBE" />
<rect x="80" y="40" width="20" height="20" fill="#4B8BBE" />
<rect x="160" y="40" width="20" height="20" fill="#4B8BBE" />
<rect x="220" y="40" width="20" height="20" fill="#4B8BBE" />
<rect x="300" y="40" width="20" height="20" fill="#4B8BBE" />
<rect x="80" y="60" width="20" height="20" fill="#4B8BBE" />
<rect x="180" y="60" width="20" height="20" fill="#4B8BBE" />
<rect x="200" y="60" width="20" height="20" fill="#4B8BBE" />
<rect x="300" y="60" width="20" height="20" fill="#4B8BBE" />
<rect x="80" y="80" width="20" height="20" fill="#4B8BBE" />
<rect x="180" y="80" width="20" height="20" fill="#4B8BBE" />
<rect x="200" y="80" width="20" height="20" fill="#4B8BBE" />
<rect x="300" y="80" width="20" height="20" fill="#4B8BBE" />
<rect x="80" y="100" width="20" height="20" fill="#4B8BBE" />
<rect x="120" y="100" width="20" height="20" fill="#4B8BBE" />
<rect x="140" y="100" width="20" height="20" fill="#4B8BBE" />
<rect x="160" y="100" width="20" height="20" fill="#4B8BBE" />
<rect x="220" y="100" width="20" height="20" fill="#4B8BBE" />
<rect x="240" y="100" width="20" height="20" fill="#4B8BBE" />
<rect x="260" y="100" width="20" height="20" fill="#4B8BBE" />
<rect x="300" y="100" width="20" height="20" fill="#4B8BBE" />
<rect x="40" y="120" width="20" height="20" fill="#4B8BBE" />
<rect x="60" y="120" width="20" height="20" fill="#4B8BBE" />
<rect x="80" y="120" width="20" height="20" fill="#4B8BBE" />
<rect x="100" y="120" width="20" height="20" fill="#4B8BBE" />
<rect x="140" y="120" width="20" height="20" fill="#4B8BBE" />
<rect x="240" y="120" width="20" height="20" fill="#4B8BBE" />
<rect x="280" y="120" width="20" height="20" fill="#4B8BBE" />
<rect x="300" y="120" width="20" height="20" fill="#4B8BBE" />
<rect x="320" y="120" width="20" height="20" fill="#4B8BBE" />
<rect x="340" y="120" width="20" height="20" fill="#4B8BBE" />
<rect x="20" y="140" width="20" height="20" fill="#4B8BBE" />
<rect x="100" y="140" width="20" height="20" fill="#4B8BBE" />
<rect x="140" y="140" width="20" height="20" fill="#4B8BBE" />
<rect x="240" y="140" width="20" height="20" fill="#4B8BBE" />
<rect x="280" y="140" width="20" height="20" fill="#4B8BBE" />
<rect x="360" y="140" width="20" height="20" fill="#4B8BBE" />
<rect x="0" y="160" width="20" height="20" fill="#4B8BBE" />
<rect x="100" y="160" width="20" height="20" fill="#4B8BBE" />
<rect x="120" y="160" width="20" height="20" fill="#4B8BBE" />
<rect x="180" y="160" width="20" height="20" fill="#4B8BBE" />
<rect x="200" y="160" width="20" height="20" fill="#4B8BBE" />
<rect x="260" y="160" width="20" height="20" fill="#4B8BBE" />
<rect x="280" y="160" width="20" height="20" fill="#4B8BBE" />
<rect x="380" y="160" width="20" height="20" fill="#4B8BBE" />
<rect x="0" y="180" width="20" height="20" fill="#4B8BBE" />
<rect x="100" y="180" width="20" height="20" fill="#4B8BBE" />
<rect x="120" y="180" width="20" height="20" fill="#4B8BBE" />
<rect x="160" y="180" width="20" height="20" fill="#4B8BBE" />
<rect x="180" y="180" width="20" height="20" fill="#4B8BBE" />
<rect x="200" y="180" width="20" height="20" fill="#4B8BBE" />
<rect x="220" y="180" width="20" height="20" fill="#4B8BBE" />
<rect x="260" y="180" width="20" height="20" fill="#4B8BBE" />
<rect x="280" y="180" width="20" height="20" fill="#4B8BBE" />
<rect x="380" y="180" width="20" height="20" fill="#4B8BBE" />
<rect x="0" y="200" width="20" height="20" fill="#4B8BBE" />
<rect x="100" y="200" width="20" height="20" fill="#4B8BBE" />
<rect x="120" y="200" width="20" height="20" fill="#4B8BBE" />
<rect x="160" y="200" width="20" height="20" fill="#4B8BBE" />
<rect x="180" y="200" width="20" height="20" fill="#4B8BBE" />
<rect x="200" y="200" width="20" height="20" fill="#4B8BBE" />
<rect x="220" y="200" width="20" height="20" fill="#4B8BBE" />
<rect x="260" y="200" width="20" height="20" fill="#4B8BBE" />
<rect x="280" y="200" width="20" height="20" fill="#4B8BBE" />
<rect x="380" y="200" width="20" height="20" fill="#4B8BBE" />
<rect x="0" y="220" width="20" height="20" fill="#4B8BBE" />
<rect x="100" y="220" width="20" height="20" fill="#4B8BBE" />
<rect x="120" y="220" width="20" height="20" fill="#4B8BBE" />
<rect x="180" y="220" width="20" height="20" fill="#4B8BBE" />
<rect x="200" y="220" width="20" height="20" fill="#4B8BBE" />
<rect x="260" y="220" width="20" height="20" fill="#4B8BBE" />
<rect x="280" y="220" width="20" height="20" fill="#4B8BBE" />
<rect x="380" y="220" width="20" height="20" fill="#4B8BBE" />
<rect x="20" y="240" width="20" height="20" fill="#4B8BBE" />
<rect x="100" y="240" width="20" height="20" fill="#4B8BBE" />
<rect x="140" y="240" width="20" height="20" fill="#4B8BBE" />
<rect x="240" y="240" width="20" height="20" fill="#4B8BBE" />
<rect x="280" y="240" width="20" height="20" fill="#4B8BBE" />
<rect x="360" y="240" width="20" height="20" fill="#4B8BBE" />
<rect x="40" y="260" width="20" height="20" fill="#4B8BBE" />
<rect x="60" y="260" width="20" height="20" fill="#4B8BBE" />
<rect x="80" y="260" width="20" height="20" fill="#4B8BBE" />
<rect x="100" y="260" width="20" height="20" fill="#4B8BBE" />
<rect x="120" y="260" width="20" height="20" fill="#4B8BBE" />
<rect x="140" y="260" width="20" height="20" fill="#4B8BBE" />
<rect x="240" y="260" width="20" height="20" fill="#4B8BBE" />
<rect x="260" y="260" width="20" height="20" fill="#4B8BBE" />
<rect x="280" y="260" width="20" height="20" fill="#4B8BBE" />
<rect x="300" y="260" width="20" height="20" fill="#4B8BBE" />
<rect x="320" y="260" width="20" height="20" fill="#4B8BBE" />
<rect x="340" y="260" width="20" height="20" fill="#4B8BBE" />
<rect x="80" y="280" width="20" height="20" fill="#4B8BBE" />
<rect x="160" y="280" width="20" height="20" fill="#4B8BBE" />
<rect x="220" y="280" width="20" height="20" fill="#4B8BBE" />
<rect x="300" y="280" width="20" height="20" fill="#4B8BBE" />
<rect x="80" y="300" width="20" height="20" fill="#4B8BBE" />
<rect x="180" y="300" width="20" height="20" fill="#4B8BBE" />
<rect x="200" y="300" width="20" height="20" fill="#4B8BBE" />
<rect x="300" y="300" width="20" height="20" fill="#4B8BBE" />
<rect x="80" y="320" width="20" height="20" fill="#4B8BBE" />
<rect x="180" y="320" width="20" height="20" fill="#4B8BBE" />
<rect x="200" y="320" width="20" height="20" fill="#4B8BBE" />
<rect x="300" y="320" width="20" height="20" fill="#4B8BBE" />
<rect x="80" y="340" width="20" height="20" fill="#4B8BBE" />
<rect x="160" y="340" width="20" height="20" fill="#4B8BBE" />
<rect x="220" y="340" width="20" height="20" fill="#4B8BBE" />
<rect x="300" y="340" width="20" height="20" fill="#4B8BBE" />
<rect x="100" y="360" width="20" height="20" fill="#4B8BBE" />
<rect x="120" y="360" width="20" height="20" fill="#4B8BBE" />
<rect x="140" y="360" width="20" height="20" fill="#4B8BBE" />
<rect x="240" y="360" width="20" height="20" fill="#4B8BBE" />
<rect x="260" y="360" width="20" height="20" fill="#4B8BBE" />
<rect x="280" y="360" width="20" height="20" fill="#4B8BBE" />
</svg>