<?xml version="1.0" encoding="UTF-8" ?>
<svg version="1.1" width="360" height="480" xmlns="http://www.w3.org/2000/svg" shape-rendering="crispEdges">
<rect x="220" y="20" width="20" height="20" fill="#000000" />
<rect x="240" y="20" width="20" height="20" fill="#000000" />
<rect x="260" y="20" width="20" height="20" fill="#000000" />
<rect x="280" y="20" width="20" height="20" fill="#000000" />
<rect x="300" y="20" width="20" height="20" fill="#000000" />
<rect x="140" y="40" width="20" height="20" fill="#000000" />
<rect x="160" y="40" width="20" height="20" fill="#000000" />
<rect x="180" y="40" width="20" height="20" fill="#000000" />
<rect x="200" y="40" width="20" height="20" fill="#000000" />
<rect x="220" y="40" width="20" height="20" fill="#DE3423" />
<rect x="240" y="40" width="20" height="20" fill="#DE3423" />
<rect x="260" y="40" width="20" height="20" fill="#DE3423" />
<rect x="280" y="40" width="20" height="20" fill="#DE3423" />
<rect x="300" y="40" width="20" height="20" fill="#000000" />
<rect x="60" y="60" width="20" height="20" fill="#000000" />
<rect x="80" y="60" width="20" height="20" fill="#000000" />
<rect x="100" y="60" width="20" height="20" fill="#000000" />
<rect x="120" y="60" width="20" height="20" fill="#000000" />
<rect x="140" y="60" width="20" height="20" fill="#DE3423" />
<rect x="160" y="60" width="20" height="20" fill="#DE3423" />
<rect x="180" y="60" width="20" height="20" fill="#DE3423" />
<rect x="200" y="60" width="20" height="20" fill="#DE3423" />
<rect x="220" y="60" width="20" height="20" fill="#DE3423" />
<rect x="240" y="60" width="20" height="20" fill="#DE3423" />
<rect x="260" y="60" width="20" height="20" fill="#DE3423" />
<rect x="280" y="60" width="20" height="20" fill="#DE3423" />
<rect x="300" y="60" width="20" height="20" fill="#000000" />
<rect x="40" y="80" width="20" height="20" fill="#000000" />
<rect x="60" y="80" width="20" height="20" fill="#DE3423" />
<rect x="80" y="80" width="20" height="20" fill="#DE3423" />
<rect x="100" y="80" width="20" height="20" fill="#DE3423" />
<rect x="120" y="80" width="20" height="20" fill="#DE3423" />
<rect x="140" y="80" width="20" height="20" fill="#DE3423" />
<rect x="160" y="80" width="20" height="20" fill="#DE3423" />
<rect x="180" y="80" width="20" height="20" fill="#DE3423" />
<rect x="200" y="80" width="20" height="20" fill="#DE3423" />
<rect x="220" y="80" width="20" height="20" fill="#DE3423" />
<rect x="240" y="80" width="20" height="20" fill="#DE3423" />
<rect x="260" y="80" width="20" height="20" fill="#DE3423" />
<rect x="280" y="80" width="20" height="20" fill="#DE3423" />
<rect x="300" y="80" width="20" height="20" fill="#000000" />
<rect x="40" y="100" width="20" height="20" fill="#000000" />
<rect x="60" y="100" width="20" height="20" fill="#DE3423" />
<rect x="80" y="100" width="20" height="20" fill="#DE3423" />
<rect x="100" y="100" width="20" height="20" fill="#DE3423" />
<rect x="120" y="100" width="20" height="20" fill="#DE3423" />
<rect x="140" y="100" width="20" height="20" fill="#DE3423" />
<rect x="160" y="100" width="20" height="20" fill="#DE3423" />
<rect x="180" y="100" width="20" height="20" fill="#DE3423" />
<rect x="200" y="100" width="20" height="20" fill="#DE3423" />
<rect x="220" y="100" width="20" height="20" fill="#000000" />
<rect x="240" y="100" width="20" height="20" fill="#000000" />
<rect x="260" y="100" width="20" height="20" fill="#000000" />
<rect x="280" y="100" width="20" height="20" fill="#000000" />
<rect x="300" y="100" width="20" height="20" fill="#000000" />
<rect x="40" y="120" width="20" height="20" fill="#000000" />
<rect x="60" y="120" width="20" height="20" fill="#DE3423" />
<rect x="80" y="120" width="20" height="20" fill="#DE3423" />
<rect x="100" y="120" width="20" height="20" fill="#DE3423" />
<rect x="120" y="120" width="20" height="20" fill="#DE3423" />
<rect x="140" y="120" width="20" height="20" fill="#000000" />
<rect x="160" y="120" width="20" height="20" fill="#000000" />
<rect x="180" y="120" width="20" height="20" fill="#000000" />
<rect x="200" y="120" width="20" height="20" fill="#000000" />
<rect x="220" y="120" width="20" height="20" fill="#380D09" />
<rect x="240" y="120" width="20" height="20" fill="#380D09" />
<rect x="40" y="140" width="20" height="20" fill="#000000" />
<rect x="60" y="140" width="20" height="20" fill="#000000" />
<rect x="80" y="140" width="20" height="20" fill="#000000" />
<rect x="100" y="140" width="20" height="20" fill="#000000" />
<rect x="120" y="140" width="20" height="20" fill="#000000" />
<rect x="140" y="140" width="20" height="20" fill="#380D09" />
<rect x="160" y="140" width="20" height="20" fill="#380D09" />
<rect x="180" y="140" width="20" height="20" fill="#380D09" />
<rect x="200" y="140" width="20" height="20" fill="#380D09" />
<rect x="220" y="140" width="20" height="20" fill="#380D09" />
<rect x="240" y="140" width="20" height="20" fill="#380D09" />
<rect x="260" y="140" width="20" height="20" fill="#380D09" />
<rect x="280" y="140" width="20" height="20" fill="#380D09" />
<rect x="300" y="140" width="20" height="20" fill="#000000" />
<rect x="40" y="160" width="20" height="20" fill="#000000" />
<rect x="60" y="160" width="20" height="20" fill="#380D09" />
<rect x="80" y="160" width="20" height="20" fill="#380D09" />
<rect x="100" y="160" width="20" height="20" fill="#380D09" />
<rect x="120" y="160" width="20" height="20" fill="#380D09" />
<rect x="140" y="160" width="20" height="20" fill="#380D09" />
<rect x="160" y="160" width="20" height="20" fill="#380D09" />
<rect x="180" y="160" width="20" height="20" fill="#380D09" />
<rect x="200" y="160" width="20" height="20" fill="#380D09" />
<rect x="220" y="160" width="20" height="20" fill="#000000" />
<rect x="240" y="160" width="20" height="20" fill="#000000" />
<rect x="260" y="160" width="20" height="20" fill="#000000" />
<rect x="280" y="160" width="20" height="20" fill="#000000" />
<rect x="300" y="160" width="20" height="20" fill="#000000" />
<rect x="100" y="180" width="20" height="20" fill="#380D09" />
<rect x="120" y="180" width="20" height="20" fill="#380D09" />
<rect x="140" y="180" width="20" height="20" fill="#000000" />
<rect x="160" y="180" width="20" height="20" fill="#000000" />
<rect x="180" y="180" width="20" height="20" fill="#000000" />
<rect x="200" y="180" width="20" height="20" fill="#000000" />
<rect x="220" y="180" width="20" height="20" fill="#DE3423" />
<rect x="240" y="180" width="20" height="20" fill="#DE3423" />
<rect x="260" y="180" width="20" height="20" fill="#DE3423" />
<rect x="280" y="180" width="20" height="20" fill="#DE3423" />
<rect x="300" y="180" width="20" height="20" fill="#000000" />
<rect x="60" y="200" width="20" height="20" fill="#000000" />
<rect x="80" y="200" width="20" height="20" fill="#000000" />
<rect x="100" y="200" width="20" height="20" fill="#000000" />
<rect x="120" y="200" width="20" height="20" fill="#000000" />
<rect x="140" y="200" width="20" height="20" fill="#DE3423" />
<rect x="160" y="200" width="20" height="20" fill="#DE3423" />
<rect x="180" y="200" width="20" height="20" fill="#DE3423" />
<rect x="200" y="200" width="20" height="20" fill="#DE3423" />
<rect x="220" y="200" width="20" height="20" fill="#DE3423" />
<rect x="240" y="200" width="20" height="20" fill="#DE3423" />
<rect x="260" y="200" width="20" height="20" fill="#DE3423" />
<rect x="280" y="200" width="20" height="20" fill="#DE3423" />
<rect x="300" y="200" width="20" height="20" fill="#000000" />
<rect x="40" y="220" width="20" height="20" fill="#000000" />
<rect x="60" y="220" width="20" height="20" fill="#DE3423" />
<rect x="80" y="220" width="20" height="20" fill="#DE3423" />
<rect x="100" y="220" width="20" height="20" fill="#DE3423" />
<rect x="120" y="220" width="20" height="20" fill="#DE3423" />
<rect x="140" y="220" width="20" height="20" fill="#DE3423" />
<rect x="160" y="220" width="20" height="20" fill="#DE3423" />
<rect x="180" y="220" width="20" height="20" fill="#DE3423" />
<rect x="200" y="220" width="20" height="20" fill="#DE3423" />
<rect x="220" y="220" width="20" height="20" fill="#DE3423" />
<rect x="240" y="220" width="20" height="20" fill="#DE3423" />
<rect x="260" y="220" width="20" height="20" fill="#DE3423" />
<rect x="280" y="220" width="20" height="20" fill="#DE3423" />
<rect x="300" y="220" width="20" height="20" fill="#000000" />
<rect x="40" y="240" width="20" height="20" fill="#000000" />
<rect x="60" y="240" width="20" height="20" fill="#DE3423" />
<rect x="80" y="240" width="20" height="20" fill="#DE3423" />
<rect x="100" y="240" width="20" height="20" fill="#DE3423" />
<rect x="120" y="240" width="20" height="20" fill="#DE3423" />
<rect x="140" y="240" width="20" height="20" fill="#DE3423" />
<rect x="160" y="240" width="20" height="20" fill="#DE3423" />
<rect x="180" y="240" width="20" height="20" fill="#DE3423" />
<rect x="200" y="240" width="20" height="20" fill="#DE3423" />
<rect x="220" y="240" width="20" height="20" fill="#000000" />
<rect x="240" y="240" width="20" height="20" fill="#000000" />
<rect x="260" y="240" width="20" height="20" fill="#000000" />
<rect x="280" y="240" width="20" height="20" fill="#000000" />
<rect x="300" y="240" width="20" height="20" fill="#000000" />
<rect x="40" y="260" width="20" height="20" fill="#000000" />
<rect x="60" y="260" width="20" height="20" fill="#DE3423" />
<rect x="80" y="260" width="20" height="20" fill="#DE3423" />
<rect x="100" y="260" width="20" height="20" fill="#DE3423" />
<rect x="120" y="260" width="20" height="20" fill="#DE3423" />
<rect x="140" y="260" width="20" height="20" fill="#000000" />
<rect x="160" y="260" width="20" height="20" fill="#000000" />
<rect x="180" y="260" width="20" height="20" fill="#000000" />
<rect x="200" y="260" width="20" height="20" fill="#000000" />
<rect x="220" y="260" width="20" height="20" fill="#380D09" />
<rect x="240" y="260" width="20" height="20" fill="#380D09" />
<rect x="40" y="280" width="20" height="20" fill="#000000" />
<rect x="60" y="280" width="20" height="20" fill="#000000" />
<rect x="80" y="280" width="20" height="20" fill="#000000" />
<rect x="100" y="280" width="20" height="20" fill="#000000" />
<rect x="120" y="280" width="20" height="20" fill="#000000" />
<rect x="140" y="280" width="20" height="20" fill="#380D09" />
<rect x="160" y="280" width="20" height="20" fill="#380D09" />
<rect x="180" y="280" width="20" height="20" fill="#380D09" />
<rect x="200" y="280" width="20" height="20" fill="#380D09" />
<rect x="220" y="280" width="20" height="20" fill="#380D09" />
<rect x="240" y="280" width="20" height="20" fill="#380D09" />
<rect x="260" y="280" width="20" height="20" fill="#380D09" />
<rect x="280" y="280" width="20" height="20" fill="#380D09" />
<rect x="300" y="280" width="20" height="20" fill="#000000" />
<rect x="40" y="300" width="20" height="20" fill="#000000" />
<rect x="60" y="300" width="20" height="20" fill="#380D09" />
<rect x="80" y="300" width="20" height="20" fill="#380D09" />
<rect x="100" y="300" width="20" height="20" fill="#380D09" />
<rect x="120" y="300" width="20" height="20" fill="#380D09" />
<rect x="140" y="300" width="20" height="20" fill="#380D09" />
<rect x="160" y="300" width="20" height="20" fill="#380D09" />
<rect x="180" y="300" width="20" height="20" fill="#380D09" />
<rect x="200" y="300" width="20" height="20" fill="#380D09" />
<rect x="220" y="300" width="20" height="20" fill="#000000" />
<rect x="240" y="300" width="20" height="20" fill="#000000" />
<rect x="260" y="300" width="20" height="20" fill="#000000" />
<rect x="280" y="300" width="20" height="20" fill="#000000" />
<rect x="300" y="300" width="20" height="20" fill="#000000" />
<rect x="100" y="320" width="20" height="20" fill="#380D09" />
<rect x="120" y="320" width="20" height="20" fill="#380D09" />
<rect x="140" y="320" width="20" height="20" fill="#000000" />
<rect x="160" y="320" width="20" height="20" fill="#000000" />
<rect x="180" y="320" width="20" height="20" fill="#000000" />
<rect x="200" y="320" width="20" height="20" fill="#000000" />
<rect x="220" y="320" width="20" height="20" fill="#DE3423" />
<rect x="240" y="320" width="20" height="20" fill="#DE3423" />
<rect x="260" y="320" width="20" height="20" fill="#DE3423" />
<rect x="280" y="320" width="20" height="20" fill="#DE3423" />
<rect x="300" y="320" width="20" height="20" fill="#000000" />
<rect x="60" y="340" width="20" height="20" fill="#000000" />
<rect x="80" y="340" width="20" height="20" fill="#000000" />
<rect x="100" y="340" width="20" height="20" fill="#000000" />
<rect x="120" y="340" width="20" height="20" fill="#000000" />
<rect x="140" y="340" width="20" height="20" fill="#DE3423" />
<rect x="160" y="340" width="20" height="20" fill="#DE3423" />
<rect x="180" y="340" width="20" height="20" fill="#DE3423" />
<rect x="200" y="340" width="20" height="20" fill="#DE3423" />
<rect x="220" y="340" width="20" height="20" fill="#DE3423" />
<rect x="240" y="340" width="20" height="20" fill="#DE3423" />
<rect x="260" y="340" width="20" height="20" fill="#DE3423" />
<rect x="280" y="340" width="20" height="20" fill="#DE3423" />
<rect x="300" y="340" width="20" height="20" fill="#000000" />
<rect x="40" y="360" width="20" height="20" fill="#000000" />
<rect x="60" y="360" width="20" height="20" fill="#DE3423" />
<rect x="80" y="360" width="20" height="20" fill="#DE3423" />
<rect x="100" y="360" width="20" height="20" fill="#DE3423" />
<rect x="120" y="360" width="20" height="20" fill="#DE3423" />
<rect x="140" y="360" width="20" height="20" fill="#DE3423" />
<rect x="160" y="360" width="20" height="20" fill="#DE3423" />
<rect x="180" y="360" width="20" height="20" fill="#DE3423" />
<rect x="200" y="360" width="20" height="20" fill="#DE3423" />
<rect x="220" y="360" width="20" height="20" fill="#DE3423" />
<rect x="240" y="360" width="20" height="20" fill="#DE3423" />
<rect x="260" y="360" width="20" height="20" fill="#DE3423" />
<rect x="280" y="360" width="20" height="20" fill="#DE3423" />
<rect x="300" y="360" width="20" height="20" fill="#000000" />
<rect x="40" y="380" width="20" height="20" fill="#000000" />
<rect x="60" y="380" width="20" height="20" fill="#DE3423" />
<rect x="80" y="380" width="20" height="20" fill="#DE3423" />
<rect x="100" y="380" width="20" height="20" fill="#DE3423" />
<rect x="120" y="380" width="20" height="20" fill="#DE3423" />
<rect x="140" y="380" width="20" height="20" fill="#DE3423" />
<rect x="160" y="380" width="20" height="20" fill="#DE3423" />
<rect x="180" y="380" width="20" height="20" fill="#DE3423" />
<rect x="200" y="380" width="20" height="20" fill="#DE3423" />
<rect x="220" y="380" width="20" height="20" fill="#000000" />
<rect x="240" y="380" width="20" height="20" fill="#000000" />
<rect x="260" y="380" width="20" height="20" fill="#000000" />
<rect x="280" y="380" width="20" height="20" fill="#000000" />
<rect x="300" y="380" width="20" height="20" fill="#000000" />
<rect x="40" y="400" width="20" height="20" fill="#000000" />
<rect x="60" y="400" width="20" height="20" fill="#DE3423" />
<rect x="80" y="400" width="20" height="20" fill="#DE3423" />
<rect x="100" y="400" width="20" height="20" fill="#DE3423" />
<rect x="120" y="400" width="20" height="20" fill="#DE3423" />
<rect x="140" y="400" width="20" height="20" fill="#000000" />
<rect x="160" y="400" width="20" height="20" fill="#000000" />
<rect x="180" y="400" width="20" height="20" fill="#000000" />
<rect x="200" y="400" width="20" height="20" fill="#000000" />
<rect x="40" y="420" width="20" height="20" fill="#000000" />
<rect x="60" y="420" width="20" height="20" fill="#000000" />
<rect x="80" y="420" width="20" height="20" fill="#000000" />
<rect x="100" y="420" width="20" height="20" fill="#000000" />
<rect x="120" y="420" width="20" height="20" fill="#000000" />
<rect x="40" y="440" width="20" height="20" fill="#000000" />
</svg>