<?xml version="1.0" encoding="UTF-8" ?>
<svg version="1.1" width="300" height="260" xmlns="http://www.w3.org/2000/svg" shape-rendering="crispEdges">
<rect x="20" y="20" width="20" height="20" fill="#41B883" />
<rect x="40" y="20" width="20" height="20" fill="#34495E" />
<rect x="60" y="20" width="20" height="20" fill="#34495E" />
<rect x="220" y="20" width="20" height="20" fill="#34495E" />
<rect x="240" y="20" width="20" height="20" fill="#34495E" />
<rect x="260" y="20" width="20" height="20" fill="#41B883" />
<rect x="20" y="40" width="20" height="20" fill="#41B883" />
<rect x="40" y="40" width="20" height="20" fill="#41B883" />
<rect x="60" y="40" width="20" height="20" fill="#34495E" />
<rect x="80" y="40" width="20" height="20" fill="#34495E" />
<rect x="200" y="40" width="20" height="20" fill="#34495E" />
<rect x="220" y="40" width="20" height="20" fill="#34495E" />
<rect x="240" y="40" width="20" height="20" fill="#41B883" />
<rect x="260" y="40" width="20" height="20" fill="#41B883" />
<rect x="40" y="60" width="20" height="20" fill="#41B883" />
<rect x="60" y="60" width="20" height="20" fill="#41B883" />
<rect x="80" y="60" width="20" height="20" fill="#34495E" />
<rect x="200" y="60" width="20" height="20" fill="#34495E" />
<rect x="220" y="60" width="20" height="20" fill="#41B883" />
<rect x="240" y="60" width="20" height="20" fill="#41B883" />
<rect x="40" y="80" width="20" height="20" fill="#41B883" />
<rect x="60" y="80" width="20" height="20" fill="#41B883" />
<rect x="80" y="80" width="20" height="20" fill="#34495E" />
<rect x="100" y="80" width="20" height="20" fill="#34495E" />
<rect x="180" y="80" width="20" height="20" fill="#34495E" />
<rect x="200" y="80" width="20" height="20" fill="#34495E" />
<rect x="220" y="80" width="20" height="20" fill="#41B883" />
<rect x="240" y="80" width="20" height="20" fill="#41B883" />
<rect x="60" y="100" width="20" height="20" fill="#41B883" />
<rect x="80" y="100" width="20" height="20" fill="#41B883" />
<rect x="100" y="100" width="20" height="20" fill="#34495E" />
<rect x="120" y="100" width="20" height="20" fill="#34495E" />
<rect x="160" y="100" width="20" height="20" fill="#34495E" />
<rect x="180" y="100" width="20" height="20" fill="#34495E" />
<rect x="200" y="100" width="20" height="20" fill="#41B883" />
<rect x="220" y="100" width="20" height="20" fill="#41B883" />
<rect x="60" y="120" width="20" height="20" fill="#41B883" />
<rect x="80" y="120" width="20" height="20" fill="#41B883" />
<rect x="100" y="120" width="20" height="20" fill="#34495E" />
<rect x="120" y="120" width="20" height="20" fill="#34495E" />
<rect x="140" y="120" width="20" height="20" fill="#34495E" />
<rect x="160" y="120" width="20" height="20" fill="#34495E" />
<rect x="180" y="120" width="20" height="20" fill="#34495E" />
<rect x="200" y="120" width="20" height="20" fill="#41B883" />
<rect x="220" y="120" width="20" height="20" fill="#41B883" />
<rect x="80" y="140" width="20" height="20" fill="#41B883" />
<rect x="100" y="140" width="20" height="20" fill="#41B883" />
<rect x="120" y="140" width="20" height="20" fill="#34495E" />
<rect x="140" y="140" width="20" height="20" fill="#34495E" />
<rect x="160" y="140" width="20" height="20" fill="#34495E" />
<rect x="180" y="140" width="20" height="20" fill="#41B883" />
<rect x="200" y="140" width="20" height="20" fill="#41B883" />
<rect x="100" y="160" width="20" height="20" fill="#41B883" />
<rect x="120" y="160" width="20" height="20" fill="#34495E" />
<rect x="140" y="160" width="20" height="20" fill="#34495E" />
<rect x="160" y="160" width="20" height="20" fill="#34495E" />
<rect x="180" y="160" width="20" height="20" fill="#41B883" />
<rect x="100" y="180" width="20" height="20" fill="#41B883" />
<rect x="120" y="180" width="20" height="20" fill="#41B883" />
<rect x="140" y="180" width="20" height="20" fill="#34495E" />
<rect x="160" y="180" width="20" height="20" fill="#41B883" />
<rect x="180" y="180" width="20" height="20" fill="#41B883" />
<rect x="120" y="200" width="20" height="20" fill="#41B883" />
<rect x="140" y="200" width="20" height="20" fill="#41B883" />
<rect x="160" y="200" width="20" height="20" fill="#41B883" />
<rect x="120" y="220" width="20" height="20" fill="#41B883" />
<rect x="140" y="220" width="20" height="20" fill="#41B883" />
<rect x="160" y="220" width="20" height="20" fill="#41B883" />
<rect x="140" y="240" width="20" height="20" fill="#41B883" />
</svg>