<?xml version="1.0" encoding="UTF-8" ?>
<svg version="1.1" width="360" height="340" xmlns="http://www.w3.org/2000/svg" shape-rendering="crispEdges">
<rect x="20" y="20" width="20" height="20" fill="#264DE4" />
<rect x="40" y="20" width="20" height="20" fill="#264DE4" />
<rect x="60" y="20" width="20" height="20" fill="#264DE4" />
<rect x="80" y="20" width="20" height="20" fill="#264DE4" />
<rect x="100" y="20" width="20" height="20" fill="#264DE4" />
<rect x="120" y="20" width="20" height="20" fill="#264DE4" />
<rect x="140" y="20" width="20" height="20" fill="#264DE4" />
<rect x="160" y="20" width="20" height="20" fill="#264DE4" />
<rect x="180" y="20" width="20" height="20" fill="#264DE4" />
<rect x="200" y="20" width="20" height="20" fill="#264DE4" />
<rect x="220" y="20" width="20" height="20" fill="#264DE4" />
<rect x="240" y="20" width="20" height="20" fill="#264DE4" />
<rect x="260" y="20" width="20" height="20" fill="#264DE4" />
<rect x="280" y="20" width="20" height="20" fill="#264DE4" />
<rect x="300" y="20" width="20" height="20" fill="#264DE4" />
<rect x="320" y="20" width="20" height="20" fill="#264DE4" />
<rect x="20" y="40" width="20" height="20" fill="#264DE4" />
<rect x="40" y="40" width="20" height="20" fill="#264DE4" />
<rect x="60" y="40" width="20" height="20" fill="#264DE4" />
<rect x="80" y="40" width="20" height="20" fill="#264DE4" />
<rect x="100" y="40" width="20" height="20" fill="#264DE4" />
<rect x="120" y="40" width="20" height="20" fill="#264DE4" />
<rect x="140" y="40" width="20" height="20" fill="#264DE4" />
<rect x="160" y="40" width="20" height="20" fill="#264DE4" />
<rect x="180" y="40" width="20" height="20" fill="#2965F1" />
<rect x="200" y="40" width="20" height="20" fill="#2965F1" />
<rect x="220" y="40" width="20" height="20" fill="#2965F1" />
<rect x="240" y="40" width="20" height="20" fill="#2965F1" />
<rect x="260" y="40" width="20" height="20" fill="#2965F1" />
<rect x="280" y="40" width="20" height="20" fill="#2965F1" />
<rect x="300" y="40" width="20" height="20" fill="#2965F1" />
<rect x="320" y="40" width="20" height="20" fill="#264DE4" />
<rect x="20" y="60" width="20" height="20" fill="#264DE4" />
<rect x="40" y="60" width="20" height="20" fill="#264DE4" />
<rect x="60" y="60" width="20" height="20" fill="#264DE4" />
<rect x="80" y="60" width="20" height="20" fill="#264DE4" />
<rect x="100" y="60" width="20" height="20" fill="#264DE4" />
<rect x="120" y="60" width="20" height="20" fill="#264DE4" />
<rect x="140" y="60" width="20" height="20" fill="#264DE4" />
<rect x="160" y="60" width="20" height="20" fill="#264DE4" />
<rect x="180" y="60" width="20" height="20" fill="#2965F1" />
<rect x="200" y="60" width="20" height="20" fill="#2965F1" />
<rect x="220" y="60" width="20" height="20" fill="#2965F1" />
<rect x="240" y="60" width="20" height="20" fill="#2965F1" />
<rect x="260" y="60" width="20" height="20" fill="#2965F1" />
<rect x="280" y="60" width="20" height="20" fill="#2965F1" />
<rect x="300" y="60" width="20" height="20" fill="#2965F1" />
<rect x="320" y="60" width="20" height="20" fill="#264DE4" />
<rect x="20" y="80" width="20" height="20" fill="#264DE4" />
<rect x="40" y="80" width="20" height="20" fill="#264DE4" />
<rect x="60" y="80" width="20" height="20" fill="#264DE4" />
<rect x="80" y="80" width="20" height="20" fill="#EBEBEB" />
<rect x="100" y="80" width="20" height="20" fill="#EBEBEB" />
<rect x="120" y="80" width="20" height="20" fill="#EBEBEB" />
<rect x="140" y="80" width="20" height="20" fill="#EBEBEB" />
<rect x="160" y="80" width="20" height="20" fill="#EBEBEB" />
<rect x="180" y="80" width="20" height="20" fill="#FFFFFF" />
<rect x="200" y="80" width="20" height="20" fill="#FFFFFF" />
<rect x="220" y="80" width="20" height="20" fill="#FFFFFF" />
<rect x="240" y="80" width="20" height="20" fill="#FFFFFF" />
<rect x="260" y="80" width="20" height="20" fill="#FFFFFF" />
<rect x="280" y="80" width="20" height="20" fill="#2965F1" />
<rect x="300" y="80" width="20" height="20" fill="#264DE4" />
<rect x="320" y="80" width="20" height="20" fill="#264DE4" />
<rect x="40" y="100" width="20" height="20" fill="#264DE4" />
<rect x="60" y="100" width="20" height="20" fill="#264DE4" />
<rect x="80" y="100" width="20" height="20" fill="#264DE4" />
<rect x="100" y="100" width="20" height="20" fill="#264DE4" />
<rect x="120" y="100" width="20" height="20" fill="#264DE4" />
<rect x="140" y="100" width="20" height="20" fill="#264DE4" />
<rect x="160" y="100" width="20" height="20" fill="#EBEBEB" />
<rect x="180" y="100" width="20" height="20" fill="#FFFFFF" />
<rect x="200" y="100" width="20" height="20" fill="#FFFFFF" />
<rect x="220" y="100" width="20" height="20" fill="#FFFFFF" />
<rect x="240" y="100" width="20" height="20" fill="#FFFFFF" />
<rect x="260" y="100" width="20" height="20" fill="#2965F1" />
<rect x="280" y="100" width="20" height="20" fill="#2965F1" />
<rect x="300" y="100" width="20" height="20" fill="#264DE4" />
<rect x="40" y="120" width="20" height="20" fill="#264DE4" />
<rect x="60" y="120" width="20" height="20" fill="#264DE4" />
<rect x="80" y="120" width="20" height="20" fill="#264DE4" />
<rect x="100" y="120" width="20" height="20" fill="#264DE4" />
<rect x="120" y="120" width="20" height="20" fill="#EBEBEB" />
<rect x="140" y="120" width="20" height="20" fill="#EBEBEB" />
<rect x="160" y="120" width="20" height="20" fill="#EBEBEB" />
<rect x="180" y="120" width="20" height="20" fill="#FFFFFF" />
<rect x="200" y="120" width="20" height="20" fill="#2965F1" />
<rect x="220" y="120" width="20" height="20" fill="#2965F1" />
<rect x="240" y="120" width="20" height="20" fill="#2965F1" />
<rect x="260" y="120" width="20" height="20" fill="#2965F1" />
<rect x="280" y="120" width="20" height="20" fill="#2965F1" />
<rect x="300" y="120" width="20" height="20" fill="#264DE4" />
<rect x="40" y="140" width="20" height="20" fill="#264DE4" />
<rect x="60" y="140" width="20" height="20" fill="#264DE4" />
<rect x="80" y="140" width="20" height="20" fill="#264DE4" />
<rect x="100" y="140" width="20" height="20" fill="#EBEBEB" />
<rect x="120" y="140" width="20" height="20" fill="#EBEBEB" />
<rect x="140" y="140" width="20" height="20" fill="#EBEBEB" />
<rect x="160" y="140" width="20" height="20" fill="#EBEBEB" />
<rect x="180" y="140" width="20" height="20" fill="#FFFFFF" />
<rect x="200" y="140" width="20" height="20" fill="#FFFFFF" />
<rect x="220" y="140" width="20" height="20" fill="#FFFFFF" />
<rect x="240" y="140" width="20" height="20" fill="#FFFFFF" />
<rect x="260" y="140" width="20" height="20" fill="#2965F1" />
<rect x="280" y="140" width="20" height="20" fill="#264DE4" />
<rect x="300" y="140" width="20" height="20" fill="#264DE4" />
<rect x="60" y="160" width="20" height="20" fill="#264DE4" />
<rect x="80" y="160" width="20" height="20" fill="#264DE4" />
<rect x="100" y="160" width="20" height="20" fill="#264DE4" />
<rect x="120" y="160" width="20" height="20" fill="#264DE4" />
<rect x="140" y="160" width="20" height="20" fill="#264DE4" />
<rect x="160" y="160" width="20" height="20" fill="#264DE4" />
<rect x="180" y="160" width="20" height="20" fill="#2965F1" />
<rect x="200" y="160" width="20" height="20" fill="#2965F1" />
<rect x="220" y="160" width="20" height="20" fill="#2965F1" />
<rect x="240" y="160" width="20" height="20" fill="#FFFFFF" />
<rect x="260" y="160" width="20" height="20" fill="#2965F1" />
<rect x="280" y="160" width="20" height="20" fill="#264DE4" />
<rect x="60" y="180" width="20" height="20" fill="#264DE4" />
<rect x="80" y="180" width="20" height="20" fill="#264DE4" />
<rect x="100" y="180" width="20" height="20" fill="#EBEBEB" />
<rect x="120" y="180" width="20" height="20" fill="#264DE4" />
<rect x="140" y="180" width="20" height="20" fill="#264DE4" />
<rect x="160" y="180" width="20" height="20" fill="#264DE4" />
<rect x="180" y="180" width="20" height="20" fill="#2965F1" />
<rect x="200" y="180" width="20" height="20" fill="#2965F1" />
<rect x="220" y="180" width="20" height="20" fill="#2965F1" />
<rect x="240" y="180" width="20" height="20" fill="#FFFFFF" />
<rect x="260" y="180" width="20" height="20" fill="#2965F1" />
<rect x="280" y="180" width="20" height="20" fill="#264DE4" />
<rect x="60" y="200" width="20" height="20" fill="#264DE4" />
<rect x="80" y="200" width="20" height="20" fill="#264DE4" />
<rect x="100" y="200" width="20" height="20" fill="#264DE4" />
<rect x="120" y="200" width="20" height="20" fill="#EBEBEB" />
<rect x="140" y="200" width="20" height="20" fill="#264DE4" />
<rect x="160" y="200" width="20" height="20" fill="#264DE4" />
<rect x="180" y="200" width="20" height="20" fill="#2965F1" />
<rect x="200" y="200" width="20" height="20" fill="#2965F1" />
<rect x="220" y="200" width="20" height="20" fill="#FFFFFF" />
<rect x="240" y="200" width="20" height="20" fill="#2965F1" />
<rect x="260" y="200" width="20" height="20" fill="#2965F1" />
<rect x="280" y="200" width="20" height="20" fill="#264DE4" />
<rect x="60" y="220" width="20" height="20" fill="#264DE4" />
<rect x="80" y="220" width="20" height="20" fill="#264DE4" />
<rect x="100" y="220" width="20" height="20" fill="#264DE4" />
<rect x="120" y="220" width="20" height="20" fill="#EBEBEB" />
<rect x="140" y="220" width="20" height="20" fill="#264DE4" />
<rect x="160" y="220" width="20" height="20" fill="#264DE4" />
<rect x="180" y="220" width="20" height="20" fill="#2965F1" />
<rect x="200" y="220" width="20" height="20" fill="#2965F1" />
<rect x="220" y="220" width="20" height="20" fill="#FFFFFF" />
<rect x="240" y="220" width="20" height="20" fill="#2965F1" />
<rect x="260" y="220" width="20" height="20" fill="#2965F1" />
<rect x="280" y="220" width="20" height="20" fill="#264DE4" />
<rect x="60" y="240" width="20" height="20" fill="#264DE4" />
<rect x="80" y="240" width="20" height="20" fill="#264DE4" />
<rect x="100" y="240" width="20" height="20" fill="#264DE4" />
<rect x="120" y="240" width="20" height="20" fill="#264DE4" />
<rect x="140" y="240" width="20" height="20" fill="#EBEBEB" />
<rect x="160" y="240" width="20" height="20" fill="#EBEBEB" />
<rect x="180" y="240" width="20" height="20" fill="#FFFFFF" />
<rect x="200" y="240" width="20" height="20" fill="#FFFFFF" />
<rect x="220" y="240" width="20" height="20" fill="#2965F1" />
<rect x="240" y="240" width="20" height="20" fill="#2965F1" />
<rect x="260" y="240" width="20" height="20" fill="#2965F1" />
<rect x="280" y="240" width="20" height="20" fill="#264DE4" />
<rect x="80" y="260" width="20" height="20" fill="#264DE4" />
<rect x="100" y="260" width="20" height="20" fill="#264DE4" />
<rect x="120" y="260" width="20" height="20" fill="#264DE4" />
<rect x="140" y="260" width="20" height="20" fill="#264DE4" />
<rect x="160" y="260" width="20" height="20" fill="#264DE4" />
<rect x="180" y="260" width="20" height="20" fill="#2965F1" />
<rect x="200" y="260" width="20" height="20" fill="#2965F1" />
<rect x="220" y="260" width="20" height="20" fill="#2965F1" />
<rect x="240" y="260" width="20" height="20" fill="#2965F1" />
<rect x="260" y="260" width="20" height="20" fill="#264DE4" />
<rect x="100" y="280" width="20" height="20" fill="#264DE4" />
<rect x="120" y="280" width="20" height="20" fill="#264DE4" />
<rect x="140" y="280" width="20" height="20" fill="#264DE4" />
<rect x="160" y="280" width="20" height="20" fill="#264DE4" />
<rect x="180" y="280" width="20" height="20" fill="#2965F1" />
<rect x="200" y="280" width="20" height="20" fill="#2965F1" />
<rect x="220" y="280" width="20" height="20" fill="#2965F1" />
<rect x="240" y="280" width="20" height="20" fill="#264DE4" />
<rect x="120" y="300" width="20" height="20" fill="#264DE4" />
<rect x="140" y="300" width="20" height="20" fill="#264DE4" />
<rect x="160" y="300" width="20" height="20" fill="#264DE4" />
<rect x="180" y="300" width="20" height="20" fill="#264DE4" />
<rect x="200" y="300" width="20" height="20" fill="#264DE4" />
<rect x="220" y="300" width="20" height="20" fill="#264DE4" />
</svg>