<?xml version="1.0" encoding="UTF-8" ?>
<svg version="1.1" width="320" height="320" xmlns="http://www.w3.org/2000/svg" shape-rendering="crispEdges">
<rect x="60" y="80" width="20" height="20" fill="#222034" />
<rect x="80" y="80" width="20" height="20" fill="#222034" />
<rect x="220" y="80" width="20" height="20" fill="#222034" />
<rect x="240" y="80" width="20" height="20" fill="#222034" />
<rect x="40" y="100" width="20" height="20" fill="#222034" />
<rect x="80" y="100" width="20" height="20" fill="#222034" />
<rect x="220" y="100" width="20" height="20" fill="#222034" />
<rect x="260" y="100" width="20" height="20" fill="#222034" />
<rect x="20" y="120" width="20" height="20" fill="#222034" />
<rect x="280" y="120" width="20" height="20" fill="#222034" />
<rect x="0" y="140" width="20" height="20" fill="#222034" />
<rect x="300" y="140" width="20" height="20" fill="#222034" />
<rect x="0" y="160" width="20" height="20" fill="#222034" />
<rect x="20" y="160" width="20" height="20" fill="#222034" />
<rect x="40" y="160" width="20" height="20" fill="#222034" />
<rect x="60" y="160" width="20" height="20" fill="#222034" />
<rect x="80" y="160" width="20" height="20" fill="#222034" />
<rect x="100" y="160" width="20" height="20" fill="#222034" />
<rect x="120" y="160" width="20" height="20" fill="#222034" />
<rect x="140" y="160" width="20" height="20" fill="#222034" />
<rect x="160" y="160" width="20" height="20" fill="#222034" />
<rect x="180" y="160" width="20" height="20" fill="#222034" />
<rect x="200" y="160" width="20" height="20" fill="#222034" />
<rect x="220" y="160" width="20" height="20" fill="#222034" />
<rect x="240" y="160" width="20" height="20" fill="#222034" />
<rect x="260" y="160" width="20" height="20" fill="#222034" />
<rect x="280" y="160" width="20" height="20" fill="#222034" />
<rect x="300" y="160" width="20" height="20" fill="#222034" />
<rect x="0" y="180" width="20" height="20" fill="#222034" />
<rect x="20" y="180" width="20" height="20" fill="#FFFFFF" />
<rect x="40" y="180" width="20" height="20" fill="#000000" />
<rect x="60" y="180" width="20" height="20" fill="#000000" />
<rect x="80" y="180" width="20" height="20" fill="#000000" />
<rect x="100" y="180" width="20" height="20" fill="#000000" />
<rect x="120" y="180" width="20" height="20" fill="#222034" />
<rect x="140" y="180" width="20" height="20" fill="#222034" />
<rect x="160" y="180" width="20" height="20" fill="#222034" />
<rect x="180" y="180" width="20" height="20" fill="#222034" />
<rect x="200" y="180" width="20" height="20" fill="#FFFFFF" />
<rect x="220" y="180" width="20" height="20" fill="#000000" />
<rect x="240" y="180" width="20" height="20" fill="#000000" />
<rect x="260" y="180" width="20" height="20" fill="#000000" />
<rect x="280" y="180" width="20" height="20" fill="#000000" />
<rect x="300" y="180" width="20" height="20" fill="#222034" />
<rect x="0" y="200" width="20" height="20" fill="#222034" />
<rect x="20" y="200" width="20" height="20" fill="#000000" />
<rect x="40" y="200" width="20" height="20" fill="#FFFFFF" />
<rect x="60" y="200" width="20" height="20" fill="#000000" />
<rect x="80" y="200" width="20" height="20" fill="#000000" />
<rect x="100" y="200" width="20" height="20" fill="#000000" />
<rect x="120" y="200" width="20" height="20" fill="#222034" />
<rect x="180" y="200" width="20" height="20" fill="#222034" />
<rect x="200" y="200" width="20" height="20" fill="#000000" />
<rect x="220" y="200" width="20" height="20" fill="#FFFFFF" />
<rect x="240" y="200" width="20" height="20" fill="#000000" />
<rect x="260" y="200" width="20" height="20" fill="#000000" />
<rect x="280" y="200" width="20" height="20" fill="#000000" />
<rect x="300" y="200" width="20" height="20" fill="#222034" />
<rect x="0" y="220" width="20" height="20" fill="#222034" />
<rect x="20" y="220" width="20" height="20" fill="#000000" />
<rect x="40" y="220" width="20" height="20" fill="#000000" />
<rect x="60" y="220" width="20" height="20" fill="#FFFFFF" />
<rect x="80" y="220" width="20" height="20" fill="#000000" />
<rect x="100" y="220" width="20" height="20" fill="#000000" />
<rect x="120" y="220" width="20" height="20" fill="#222034" />
<rect x="180" y="220" width="20" height="20" fill="#222034" />
<rect x="200" y="220" width="20" height="20" fill="#000000" />
<rect x="220" y="220" width="20" height="20" fill="#000000" />
<rect x="240" y="220" width="20" height="20" fill="#FFFFFF" />
<rect x="260" y="220" width="20" height="20" fill="#000000" />
<rect x="280" y="220" width="20" height="20" fill="#000000" />
<rect x="300" y="220" width="20" height="20" fill="#222034" />
<rect x="20" y="240" width="20" height="20" fill="#222034" />
<rect x="40" y="240" width="20" height="20" fill="#222034" />
<rect x="60" y="240" width="20" height="20" fill="#222034" />
<rect x="80" y="240" width="20" height="20" fill="#222034" />
<rect x="100" y="240" width="20" height="20" fill="#222034" />
<rect x="200" y="240" width="20" height="20" fill="#222034" />
<rect x="220" y="240" width="20" height="20" fill="#222034" />
<rect x="240" y="240" width="20" height="20" fill="#222034" />
<rect x="260" y="240" width="20" height="20" fill="#222034" />
<rect x="280" y="240" width="20" height="20" fill="#222034" />
</svg>